<svg width="622" height="441" viewBox="0 0 622 441" fill="none" xmlns="http://www.w3.org/2000/svg">
<path d="M319.882 433.218L251.567 280.251H417.108L621.25 414.91" fill="white"/>
<path d="M319.882 433.218L251.567 280.251H417.108L621.25 414.91" stroke="#263238" stroke-width="0.75" stroke-linecap="round" stroke-linejoin="round"/>
<path d="M302.935 427.195L251.567 290.454V280.251L324.238 440.345L302.935 427.195Z" fill="#263238" stroke="#263238" stroke-width="0.75" stroke-linecap="round" stroke-linejoin="round"/>
<path d="M346.214 286.578L416.627 369.116L331.158 389.025L282.593 296.765L346.214 286.578Z" fill="white" stroke="#263238" stroke-width="0.75" stroke-linecap="round" stroke-linejoin="round"/>
<path d="M331.158 389.025V391.46L415.17 374.466L416.627 369.116L331.158 389.025Z" fill="#263238" stroke="#263238" stroke-width="0.75" stroke-linecap="round" stroke-linejoin="round"/>
<path d="M343.555 316.274L347.159 321.592L356.321 319.109L352.509 313.919L343.555 316.274Z" fill="#263238"/>
<path d="M378.233 348.806L373.876 342.911L363.465 345.714L367.533 351.737L378.233 348.806Z" fill="#263238"/>
<path d="M336.075 305.19L338.75 309.162L347.368 306.968L344.661 303.284L336.075 305.19Z" fill="#263238"/>
<path d="M352.669 329.745L357.603 337.049L367.678 334.502L362.232 327.118L352.669 329.745Z" fill="#263238"/>
<path d="M378.762 333.172L370.128 335.367L374.453 341.229L383.247 338.859L378.762 333.172Z" fill="#263238"/>
<path d="M358.484 338.33L362.6 344.449L372.947 341.646L368.607 335.751L358.484 338.33Z" fill="#263238"/>
<path d="M326.321 307.353L328.98 311.646L337.245 309.531L334.538 305.527L326.321 307.353Z" fill="#263238"/>
<path d="M348.008 322.858L351.82 328.48L361.303 325.853L357.25 320.359L348.008 322.858Z" fill="#263238"/>
<path d="M339.615 310.428L342.69 314.993L351.564 312.655L348.296 308.218L339.615 310.428Z" fill="#263238"/>
<path d="M320.971 320.727L318.28 315.874L308.461 318.372L311.2 323.306L320.971 320.727Z" fill="#263238"/>
<path d="M306.859 332.468L313.603 330.658L310.479 325.02L303.848 326.765L306.859 332.468Z" fill="#263238"/>
<path d="M323.405 302.643L325.504 306.039L333.657 304.229L331.462 300.994L323.405 302.643Z" fill="#263238"/>
<path d="M317.543 314.544L314.948 309.867L304.969 312.062L307.724 317.043L317.543 314.544Z" fill="#263238"/>
<path d="M313.715 304.613L315.701 308.201L323.998 306.375L321.868 302.947L313.715 304.613Z" fill="#263238"/>
<path d="M299.764 319.078L306.267 317.412L303.48 312.398L296.993 313.824L299.764 319.078Z" fill="#263238"/>
<path d="M302.15 306.984L304.232 310.732L314.211 308.537L312.209 304.917L302.15 306.984Z" fill="#263238"/>
<path d="M333.496 318.932L336.86 324.362L345.67 321.992L342.066 316.674L333.496 318.932Z" fill="#263238"/>
<path d="M356.113 337.433L351.196 330.161L342.018 332.692L346.47 339.884L356.113 337.433Z" fill="#263238"/>
<path d="M316.438 309.531L319.001 314.176L327.49 312.014L324.815 307.689L316.438 309.531Z" fill="#263238"/>
<path d="M318.36 339.211L311.44 341.118L315.028 347.893L322.156 346.083L318.36 339.211Z" fill="#263238"/>
<path d="M337.661 325.661L341.217 331.395L350.331 328.896L346.535 323.258L337.661 325.661Z" fill="#263238"/>
<path d="M331.222 318.036L328.291 313.311L319.738 315.489L322.428 320.358L331.222 318.036Z" fill="#263238"/>
<path d="M347.287 368.251L337.501 370.75L340.993 377.045L350.811 374.626L347.287 368.251Z" fill="#263238"/>
<path d="M332.135 299.375L340.512 297.662L336.011 291.543L327.762 292.904L332.135 299.375Z" fill="#263238"/>
<path d="M311.472 303.589L307.42 296.269L297.153 297.966L301.413 305.655L311.472 303.589Z" fill="#263238"/>
<path d="M324.799 327.63L321.708 322.04L311.937 324.619L315.06 330.257L324.799 327.63Z" fill="#263238"/>
<path d="M349.738 347.925L345.798 341.566L335.611 344.161L339.263 350.76L349.738 347.925Z" fill="#263238"/>
<path d="M344.997 340.268L340.544 333.092L330.95 335.735L334.874 342.831L344.997 340.268Z" fill="#263238"/>
<path d="M361.11 344.849L356.978 338.714L347.271 341.181L351.212 347.524L361.11 344.849Z" fill="#263238"/>
<path d="M335.387 324.763L332.023 319.317L323.149 321.671L326.241 327.23L335.387 324.763Z" fill="#263238"/>
<path d="M329.78 312.943L332.696 317.636L341.201 315.393L338.109 310.812L329.78 312.943Z" fill="#263238"/>
<path d="M339.743 331.811L336.187 326.061L326.961 328.544L330.229 334.438L339.743 331.811Z" fill="#263238"/>
<path d="M366.06 352.153L361.975 346.131L352.013 348.822L355.809 354.956L366.06 352.153Z" fill="#263238"/>
<path d="M359.477 363.638L355.136 356.639L344.18 359.65L348.024 366.553L359.477 363.638Z" fill="#263238"/>
<path d="M326.641 354.172L322.893 347.396L315.733 349.222L319.385 356.142L326.641 354.172Z" fill="#263238"/>
<path d="M314.34 331.972L307.564 333.798L310.752 339.804L317.623 337.914L314.34 331.972Z" fill="#263238"/>
<path d="M346.551 366.938L342.738 360.034L333.032 362.693L336.764 369.42L346.551 366.938Z" fill="#263238"/>
<path d="M328.771 334.822L325.52 328.944L315.781 331.571L319.081 337.513L328.771 334.822Z" fill="#263238"/>
<path d="M333.016 300.673L335.194 303.893L343.716 302.003L341.457 298.943L333.016 300.673Z" fill="#263238"/>
<path d="M296.288 312.494L302.743 311.069L300.661 307.289L294.222 308.602L296.288 312.494Z" fill="#263238"/>
<path d="M322.573 301.314L330.581 299.681L326.177 293.162L318.328 294.459L322.573 301.314Z" fill="#263238"/>
<path d="M312.978 303.284L321.067 301.634L316.774 294.714L308.942 296.012L312.978 303.284Z" fill="#263238"/>
<path d="M309.759 323.706L307.004 318.741L300.468 320.407L303.143 325.436L309.759 323.706Z" fill="#263238"/>
<path d="M342.082 297.342L349.322 295.852L344.773 290.102L337.613 291.271L342.082 297.342Z" fill="#263238"/>
<path d="M299.908 305.959L295.615 298.207L289.272 299.264L293.517 307.256L299.908 305.959Z" fill="#263238"/>
<path d="M336.043 371.119L328.355 373.073L331.687 379.352L339.535 377.413L336.043 371.119Z" fill="#263238"/>
<path d="M372.579 361.795L361.751 364.55L365.708 370.941L376.888 368.17L372.579 361.795Z" fill="#263238"/>
<path d="M360.278 364.935L348.745 367.866L352.285 374.257L364.218 371.31L360.278 364.935Z" fill="#263238"/>
<path d="M385.393 358.528L374.085 361.411L378.393 367.802L390.102 364.903L385.393 358.528Z" fill="#263238"/>
<path d="M396.525 355.694L386.915 358.145L391.64 364.535L401.571 362.069L396.525 355.694Z" fill="#263238"/>
<path d="M331.59 363.093L324.142 365.128L327.65 371.759L335.307 369.805L331.59 363.093Z" fill="#263238"/>
<path d="M354.335 355.357L350.539 349.222L339.999 352.073L343.459 358.336L354.335 355.357Z" fill="#263238"/>
<path d="M371.714 360.514L366.909 353.418L356.61 356.238L360.95 363.253L371.714 360.514Z" fill="#263238"/>
<path d="M342.018 358.721L338.542 352.458L328.819 355.101L332.311 361.38L342.018 358.721Z" fill="#263238"/>
<path d="M323.454 363.813L330.87 361.779L327.378 355.484L320.09 357.455L323.454 363.813Z" fill="#263238"/>
<path d="M333.416 343.215L329.508 336.135L319.801 338.81L323.614 345.698L333.416 343.215Z" fill="#263238"/>
<path d="M384.464 357.263L379.162 350.071L368.398 353.018L373.22 360.13L384.464 357.263Z" fill="#263238"/>
<path d="M337.821 351.145L334.153 344.529L324.351 347.028L328.099 353.787L337.821 351.145Z" fill="#263238"/>
<path d="M363.737 326.702L369.199 334.102L377.769 331.924L371.874 324.46L363.737 326.702Z" fill="#263238"/>
<path d="M353.086 312.254L360.678 310.252L357.266 305.943L349.834 307.833L353.086 312.254Z" fill="#263238"/>
<path d="M346.23 302.948L348.889 306.568L356.289 304.694L353.614 301.314L346.23 302.948Z" fill="#263238"/>
<path d="M395.532 354.444L389.798 347.156L380.668 349.654L385.986 356.878L395.532 354.444Z" fill="#263238"/>
<path d="M354.015 313.519L357.843 318.692L365.659 316.578L361.655 311.5L354.015 313.519Z" fill="#263238"/>
<path d="M375.382 342.495L379.739 348.405L388.821 345.922L384.224 340.108L375.382 342.495Z" fill="#263238"/>
<path d="M345.269 301.666L352.621 300.048L350.331 297.133L343.043 298.623L345.269 301.666Z" fill="#263238"/>
<path d="M362.808 325.452L370.897 323.21L366.653 317.828L358.772 319.958L362.808 325.452Z" fill="#263238"/>
<path d="M427.791 295.804V308.906C426.46 310.192 424.994 311.331 423.418 312.302C421 313.759 401.09 317.107 401.09 317.107L426.334 344.801C426.334 344.801 449.479 342.27 455.966 340.428C462.757 338.474 461.3 313.711 461.3 313.711L427.791 295.804Z" fill="white" stroke="#263238" stroke-width="0.75" stroke-linecap="round" stroke-linejoin="round"/>
<path d="M427.791 295.804V308.906C427.791 308.906 427.439 309.258 426.862 309.771L456.382 340.3C462.693 337.465 461.3 313.759 461.3 313.759L427.791 295.804Z" fill="#263238" stroke="#263238" stroke-width="0.75" stroke-linecap="round" stroke-linejoin="round"/>
<path d="M383.119 128.261V267.148L488.978 350.663V136.029L383.119 128.261Z" fill="white" stroke="#263238" stroke-width="0.75" stroke-linecap="round" stroke-linejoin="round"/>
<path d="M390.406 135.549V252.572L479.271 307.448V143.317L390.406 135.549Z" fill="#FF206E" stroke="#263238" stroke-width="0.75" stroke-linecap="round" stroke-linejoin="round"/>
<path d="M499.661 136.03H488.978V350.712H499.661V136.03Z" fill="#263238" stroke="#263238" stroke-width="0.75" stroke-linecap="round" stroke-linejoin="round"/>
<path d="M396.237 142.837L396.717 247.239L471.006 289.477V160.2L420.023 152.48L416.627 145.256L396.237 142.837Z" fill="white" stroke="#263238" stroke-width="0.75" stroke-linecap="round" stroke-linejoin="round"/>
<path d="M401.09 155.458V244.323L466.649 279.289V167.119L401.09 155.458Z" fill="#FF206E" stroke="#263238" stroke-width="0.75" stroke-linecap="round" stroke-linejoin="round"/>
<path d="M439.433 242.195C448.683 239.09 452.711 226.238 448.432 213.492C444.152 200.745 433.184 192.929 423.934 196.035C414.684 199.141 410.655 211.992 414.935 224.738C419.215 237.485 430.183 245.301 439.433 242.195Z" fill="#263238"/>
<path d="M433.622 220.57L439.852 213.667C440.273 213.051 440.488 212.319 440.468 211.574C440.448 210.829 440.193 210.11 439.74 209.518C438.811 208.189 437.354 207.916 436.537 208.861L430.546 215.509L424.54 205.898C423.675 204.505 422.217 204.072 421.336 204.937C420.872 205.511 420.608 206.22 420.585 206.958C420.562 207.695 420.781 208.42 421.208 209.021L427.439 219.032L421.096 225.904C420.675 226.52 420.461 227.253 420.484 227.999C420.507 228.744 420.766 229.463 421.224 230.052C421.59 230.632 422.162 231.05 422.826 231.222C423.114 231.293 423.416 231.283 423.699 231.192C423.982 231.102 424.234 230.935 424.427 230.709L430.434 224.062L436.425 233.672C436.793 234.326 437.402 234.809 438.122 235.018C438.399 235.105 438.694 235.115 438.976 235.047C439.259 234.98 439.517 234.837 439.724 234.633C440.184 234.057 440.443 233.347 440.463 232.61C440.484 231.873 440.263 231.15 439.836 230.549L433.622 220.57Z" fill="white"/>
<path d="M412.735 185.571L449.447 196.351" stroke="#263238" stroke-width="0.75" stroke-linecap="round" stroke-linejoin="round"/>
<path d="M411.277 175.369L458.865 188.648" stroke="#263238" stroke-width="0.75" stroke-linecap="round" stroke-linejoin="round"/>
<path d="M444.081 404.193C444.081 404.193 420.872 406.34 412.287 413.211C403.701 420.083 410.14 423.526 418.293 425.673C426.446 427.819 462.982 424.375 467.707 419.65C472.432 414.925 467.707 403.328 444.081 404.193Z" fill="white" stroke="#263238" stroke-width="0.75" stroke-linecap="round" stroke-linejoin="round"/>
<path d="M467.707 419.715C468.62 418.804 469.186 417.603 469.309 416.32C458.913 415.807 445.282 418.818 432.901 422.727C428.721 424.057 424.476 425.174 420.183 426.074C430.979 427.372 463.286 424.072 467.707 419.715Z" fill="#263238" stroke="#263238" stroke-width="0.75" stroke-linecap="round" stroke-linejoin="round"/>
<path d="M361.799 149.276L378.762 158.102" stroke="#263238" stroke-linecap="round" stroke-linejoin="round"/>
<path d="M352.061 144.215L357.106 146.842" stroke="#263238" stroke-linecap="round" stroke-linejoin="round"/>
<path d="M365.531 193.74L371.282 194.397" stroke="#263238" stroke-linecap="round" stroke-linejoin="round"/>
<path d="M343.523 191.194L359.028 192.988" stroke="#263238" stroke-linecap="round" stroke-linejoin="round"/>
<path d="M369.151 234.985L349.93 240.319" stroke="#263238" stroke-linecap="round" stroke-linejoin="round"/>
<mask id="mask0_341_2892" style="mask-type:luminance" maskUnits="userSpaceOnUse" x="0" y="64" width="370" height="366">
<path d="M369.151 64.127H0.75V429.325H369.151V64.127Z" fill="white"/>
</mask>
<g mask="url(#mask0_341_2892)">
<path d="M199.558 409.912C199.558 409.912 257.83 384.172 289.16 382.234L312.017 432.737H139.381L199.558 409.912Z" fill="#263238" stroke="#263238" stroke-width="0.75" stroke-linecap="round" stroke-linejoin="round"/>
<path d="M270.484 105.612C270.484 105.612 311.505 154.337 320.138 163.275C328.771 172.213 329.092 178.7 326.305 182.704C323.518 186.709 302.567 194.125 280.975 207.996C259.384 221.867 198.005 257.65 197.396 258.899C196.787 260.149 190.909 215.652 190.909 215.652L293.613 173.398L293.309 170.307L259.992 108.624L270.484 105.612Z" fill="white"/>
<mask id="mask1_341_2892" style="mask-type:luminance" maskUnits="userSpaceOnUse" x="190" y="105" width="138" height="154">
<path d="M270.484 105.612C270.484 105.612 311.505 154.337 320.138 163.275C328.771 172.213 329.092 178.7 326.305 182.704C323.518 186.709 302.567 194.125 280.975 207.996C259.384 221.867 198.005 257.65 197.396 258.899C196.787 260.149 190.909 215.652 190.909 215.652L293.613 173.398L293.309 170.307L259.992 108.624L270.484 105.612Z" fill="white"/>
</mask>
<g mask="url(#mask1_341_2892)">
<path d="M309.967 177.531L262.363 108.015L260.073 108.688L293.389 170.371L293.693 173.462L190.989 215.716C190.989 215.716 191.101 216.485 191.262 217.783L197.957 233.143L309.967 177.531Z" fill="#FF206E"/>
<path opacity="0.5" d="M309.967 177.531L262.363 108.015L260.073 108.688L293.389 170.371L293.693 173.462L190.989 215.716C190.989 215.716 191.101 216.485 191.262 217.783L197.957 233.143L309.967 177.531Z" fill="white"/>
</g>
<path d="M270.484 105.612C270.484 105.612 311.505 154.337 320.138 163.275C328.771 172.213 329.092 178.7 326.305 182.704C323.518 186.709 302.567 194.125 280.975 207.996C259.384 221.867 198.005 257.65 197.396 258.899C196.787 260.149 190.909 215.652 190.909 215.652L293.613 173.398L293.309 170.307L259.992 108.624L270.484 105.612Z" stroke="#263238" stroke-width="0.75" stroke-linecap="round" stroke-linejoin="round"/>
<path d="M237.792 84.3254C237.792 84.3254 232.859 80.0007 230.392 84.3254C227.925 88.6501 227.621 95.7298 229.159 96.3545C230.696 96.9792 236.863 96.0502 237.792 94.1922C238.721 92.3341 237.792 84.3254 237.792 84.3254Z" fill="white" stroke="#263238" stroke-width="0.75" stroke-linecap="round" stroke-linejoin="round"/>
<path d="M246.426 82.1632C246.426 82.1632 241.188 76.6211 237.792 78.7675C234.396 80.9138 235.325 92.6546 236.559 93.5836C237.792 94.5126 245.192 91.9819 246.169 90.4923C247.146 89.0027 246.426 82.1632 246.426 82.1632Z" fill="white" stroke="#263238" stroke-width="0.75" stroke-linecap="round" stroke-linejoin="round"/>
<path d="M258.15 82.468C258.15 82.468 253.521 76.061 249.213 76.061C244.904 76.061 241.797 91.4859 243.35 92.7192C244.904 93.9525 255.059 92.4149 255.684 91.4858C256.673 88.528 257.496 85.5174 258.15 82.468Z" fill="white" stroke="#263238" stroke-width="0.75" stroke-linecap="round" stroke-linejoin="round"/>
<path d="M267.168 92.9588C267.168 91.1168 266.255 75.0673 260.761 75.9963C255.267 76.9253 249.357 89.8834 249.661 92.0138C249.966 94.1441 267.168 92.9588 267.168 92.9588Z" fill="white" stroke="#263238" stroke-width="0.75" stroke-linecap="round" stroke-linejoin="round"/>
<path d="M293.613 173.462C293.613 173.462 309.342 179.324 315.205 179.004Z" fill="white"/>
<path d="M293.613 173.462C293.613 173.462 309.342 179.324 315.205 179.004" stroke="#263238" stroke-width="0.75" stroke-linecap="round" stroke-linejoin="round"/>
<path d="M164.272 433.154C181.026 430.335 202.49 418.818 208.881 404.322C204.075 379.191 198.005 343.792 198.005 322.137C198.005 285.745 207.615 265.082 203.242 240.448C198.87 215.813 189.676 199.747 179.809 193.26C179.809 193.26 164.704 197.265 149.28 211.76C133.855 226.256 120.288 251.179 115.002 274.933C109.717 298.687 102.669 371.775 102.669 390.9C102.669 410.024 101.291 433.762 101.291 433.762C119.759 433.762 138.228 433.762 156.696 433.762C159.234 433.787 161.77 433.583 164.272 433.154Z" fill="white"/>
<mask id="mask2_341_2892" style="mask-type:luminance" maskUnits="userSpaceOnUse" x="101" y="193" width="108" height="241">
<path d="M164.272 433.154C181.026 430.335 202.49 418.818 208.881 404.322C204.075 379.191 198.005 343.792 198.005 322.137C198.005 285.745 207.615 265.082 203.242 240.448C198.87 215.813 189.676 199.747 179.809 193.26C179.809 193.26 164.704 197.265 149.28 211.76C133.855 226.256 120.288 251.179 115.002 274.933C109.717 298.687 102.669 371.775 102.669 390.9C102.669 410.024 101.291 433.762 101.291 433.762C119.759 433.762 138.228 433.762 156.696 433.762C159.234 433.787 161.77 433.583 164.272 433.154Z" fill="white"/>
</mask>
<g mask="url(#mask2_341_2892)">
<path d="M208.88 404.306C199.494 412.315 157.224 427.868 151.057 429.245C144.891 430.623 148.318 417.585 157.913 404.562C167.507 391.54 146.252 409.368 142.825 410.729C139.397 412.091 144.202 385.358 144.202 372.287C144.202 359.217 156.551 248.184 156.551 248.184L179.857 205.658L187.866 200.853C185.629 197.879 182.924 195.288 179.857 193.18C179.857 193.18 164.752 197.185 149.328 211.68C133.903 226.176 120.288 251.179 115.002 274.933C109.716 298.687 102.669 371.775 102.669 390.9C102.669 410.024 101.291 433.762 101.291 433.762C119.759 433.762 138.227 433.762 156.696 433.762C159.225 433.764 161.75 433.539 164.24 433.09C181.026 430.335 202.49 418.818 208.88 404.306Z" fill="#FF206E"/>
<path opacity="0.5" d="M208.88 404.306C199.494 412.315 157.224 427.868 151.057 429.245C144.891 430.623 148.318 417.585 157.913 404.562C167.507 391.54 146.252 409.368 142.825 410.729C139.397 412.091 144.202 385.358 144.202 372.287C144.202 359.217 156.551 248.184 156.551 248.184L179.857 205.658L187.866 200.853C185.629 197.879 182.924 195.288 179.857 193.18C179.857 193.18 164.752 197.185 149.328 211.68C133.903 226.176 120.288 251.179 115.002 274.933C109.716 298.687 102.669 371.775 102.669 390.9C102.669 410.024 101.291 433.762 101.291 433.762C119.759 433.762 138.227 433.762 156.696 433.762C159.225 433.764 161.75 433.539 164.24 433.09C181.026 430.335 202.49 418.818 208.88 404.306Z" fill="white"/>
</g>
<path d="M164.272 433.154C181.026 430.335 202.49 418.818 208.881 404.322C204.075 379.191 198.005 343.792 198.005 322.137C198.005 285.745 207.615 265.082 203.242 240.448C198.87 215.813 189.676 199.747 179.809 193.26C179.809 193.26 164.704 197.265 149.28 211.76C133.855 226.256 120.288 251.179 115.002 274.933C109.717 298.687 102.669 371.775 102.669 390.9C102.669 410.024 101.291 433.762 101.291 433.762C119.759 433.762 138.228 433.762 156.696 433.762C159.234 433.787 161.77 433.583 164.272 433.154Z" stroke="#263238" stroke-width="0.75" stroke-linecap="round" stroke-linejoin="round"/>
<path d="M178.912 198.93L205.405 247.175L206.831 273.636C206.831 273.636 214.215 254.767 210.931 242.45C207.647 230.132 178.912 198.93 178.912 198.93Z" fill="#263238" stroke="#263238" stroke-width="0.75" stroke-linecap="round" stroke-linejoin="round"/>
<path d="M206.814 273.652L199.43 385.309L207.647 408.294L213.397 362.308L208.464 270.352L206.814 273.652Z" fill="#263238" stroke="#263238" stroke-width="0.75" stroke-linecap="round" stroke-linejoin="round"/>
<path d="M199.542 153.713C199.542 153.713 200.472 165.742 201.401 171.605C202.33 177.467 187.834 193.869 187.834 193.869L208.801 225.631L232.554 207.131C232.554 207.131 266.191 204.665 269.25 201.878C272.31 199.091 272.342 168.577 272.342 168.577L280.351 163.948C280.351 163.948 272.95 131.913 271.108 124.77L269.25 117.69C269.25 117.69 280.046 113.974 277.58 103.274C275.113 92.5745 259.384 87.2567 243.655 89.6914C227.925 92.126 223.921 98.0204 223.921 98.0204C223.921 98.0204 201.705 97.7161 189.067 108.208C176.429 118.699 184.134 135.341 188.138 141.203C191.546 145.716 195.363 149.904 199.542 153.713Z" fill="white"/>
<mask id="mask3_341_2892" style="mask-type:luminance" maskUnits="userSpaceOnUse" x="182" y="89" width="99" height="137">
<path d="M199.542 153.713C199.542 153.713 200.472 165.742 201.401 171.605C202.33 177.467 187.834 193.869 187.834 193.869L208.801 225.631L232.554 207.131C232.554 207.131 266.191 204.665 269.25 201.878C272.31 199.091 272.342 168.577 272.342 168.577L280.351 163.948C280.351 163.948 272.95 131.913 271.108 124.77L269.25 117.69C269.25 117.69 280.046 113.974 277.58 103.274C275.113 92.5745 259.384 87.2567 243.655 89.6914C227.925 92.126 223.921 98.0204 223.921 98.0204C223.921 98.0204 201.705 97.7161 189.067 108.208C176.429 118.699 184.134 135.341 188.138 141.203C191.546 145.716 195.363 149.904 199.542 153.713Z" fill="white"/>
</mask>
<g mask="url(#mask3_341_2892)">
<path d="M236.735 196.8C230.568 189.256 236.735 160.457 241.54 146.057C246.345 131.657 234.685 125.49 234.685 125.49L269.699 119.452L269.218 117.642C271.586 116.716 273.692 115.226 275.353 113.301L277.243 102.169C274.04 92.046 258.871 87.1767 243.606 89.5633C227.877 92.03 223.873 97.8924 223.873 97.8924C223.873 97.8924 201.657 97.588 189.019 108.079C176.381 118.571 184.086 135.213 188.09 141.075C191.491 145.633 195.309 149.863 199.494 153.713C199.494 153.713 200.423 165.742 201.352 171.605C202.281 177.467 187.834 193.869 187.834 193.869L208.801 225.632L232.554 207.131C232.554 207.131 258.182 205.241 266.768 202.919L269.25 201.878C269.25 201.878 242.934 204.344 236.735 196.8Z" fill="#FF206E"/>
<path opacity="0.5" d="M236.735 196.8C230.568 189.256 236.735 160.457 241.54 146.057C246.345 131.657 234.685 125.49 234.685 125.49L269.699 119.452L269.218 117.642C271.586 116.716 273.692 115.226 275.353 113.301L277.243 102.169C274.04 92.046 258.871 87.1767 243.606 89.5633C227.877 92.03 223.873 97.8924 223.873 97.8924C223.873 97.8924 201.657 97.588 189.019 108.079C176.381 118.571 184.086 135.213 188.09 141.075C191.491 145.633 195.309 149.863 199.494 153.713C199.494 153.713 200.423 165.742 201.352 171.605C202.281 177.467 187.834 193.869 187.834 193.869L208.801 225.632L232.554 207.131C232.554 207.131 258.182 205.241 266.768 202.919L269.25 201.878C269.25 201.878 242.934 204.344 236.735 196.8Z" fill="white"/>
<path d="M254.755 139.537C254.755 139.537 254.755 139.057 254.755 138.304C254.755 135.918 255.155 130.76 259.143 129.35C264.381 127.508 268.754 132.442 268.754 132.442L269.058 137.375C268.305 136.433 267.314 135.708 266.188 135.275C265.063 134.842 263.842 134.715 262.651 134.908C259.586 135.553 256.814 137.178 254.755 139.537Z" fill="#263238"/>
<path d="M263.708 149.404C263.708 151.951 263.004 154.033 262.107 154.033C261.21 154.033 260.505 151.951 260.505 149.404C260.505 146.858 261.194 144.775 262.107 144.775C263.02 144.775 263.708 146.842 263.708 149.404Z" fill="#263238"/>
<path d="M253.986 181.711C252.272 183.489 249.981 184.066 248.876 183.009C247.771 181.951 248.268 179.629 249.981 177.851C251.695 176.073 253.97 175.496 255.075 176.554C256.18 177.611 255.7 179.933 253.986 181.711Z" fill="#263238"/>
</g>
<path d="M199.542 153.713C199.542 153.713 200.472 165.742 201.401 171.605C202.33 177.467 187.834 193.869 187.834 193.869L208.801 225.631L232.554 207.131C232.554 207.131 266.191 204.665 269.25 201.878C272.31 199.091 272.342 168.577 272.342 168.577L280.351 163.948C280.351 163.948 272.95 131.913 271.108 124.77L269.25 117.69C269.25 117.69 280.046 113.974 277.58 103.274C275.113 92.5745 259.384 87.2567 243.655 89.6914C227.925 92.126 223.921 98.0204 223.921 98.0204C223.921 98.0204 201.705 97.7161 189.067 108.208C176.429 118.699 184.134 135.341 188.138 141.203C191.546 145.716 195.363 149.904 199.542 153.713Z" stroke="#263238" stroke-width="0.75" stroke-linecap="round" stroke-linejoin="round"/>
<path d="M229.159 123.487C234.717 119.787 269.202 117.641 269.202 117.641C269.202 117.641 279.998 113.925 277.531 103.225C275.065 92.5257 259.336 87.2079 243.606 89.6425C227.877 92.0772 223.873 97.9716 223.873 97.9716C223.873 97.9716 201.657 97.6673 189.019 108.159C176.381 118.65 184.086 135.292 188.09 141.155C191.491 145.712 195.309 149.943 199.494 153.792C199.494 153.792 200.007 160.392 200.648 166.206L210.258 168.913L220.75 163.355L231.241 160.888C231.241 160.888 223.521 155.026 227.845 149.484C232.17 143.942 240.179 142.084 240.483 137.759C240.787 133.434 223.601 127.187 229.159 123.487Z" fill="#263238" stroke="#263238" stroke-width="0.75" stroke-linecap="round" stroke-linejoin="round"/>
<path d="M262.827 105.565C262.827 105.565 259.207 98.9335 265.839 100.135C272.47 101.336 272.47 112.805 267.04 115.207C261.61 117.61 232.074 112.196 215.784 117.017C199.494 121.838 188.058 135.101 188.058 135.101" stroke="white" stroke-miterlimit="10" stroke-linecap="round"/>
<path d="M197.108 145.352C197.108 145.352 209.778 134.508 220.013 132.698C230.248 130.888 235.694 130.888 224.241 137.503C212.789 144.119 220.621 142.917 227.861 140.515" stroke="white" stroke-miterlimit="10" stroke-linecap="round"/>
<path d="M223.601 169.137C223.601 169.137 221.759 149.708 212.196 149.099C202.634 148.491 202.938 162.362 205.789 171.924C208.64 181.487 215.4 184.562 220.894 179.629" fill="#FF206E"/>
<mask id="mask4_341_2892" style="mask-type:luminance" maskUnits="userSpaceOnUse" x="204" y="149" width="20" height="33">
<path d="M223.601 169.137C223.601 169.137 221.759 149.708 212.196 149.099C202.634 148.491 202.938 162.362 205.789 171.924C208.64 181.487 215.4 184.562 220.894 179.629" fill="white"/>
</mask>
<g mask="url(#mask4_341_2892)">
<g opacity="0.5">
<path d="M223.601 169.137C223.601 169.137 221.759 149.708 212.196 149.099C202.634 148.491 202.938 162.362 205.789 171.924C208.64 181.487 215.4 184.562 220.894 179.629" fill="white"/>
<path d="M223.601 169.137C223.601 169.137 221.759 149.708 212.196 149.099C202.634 148.491 202.938 162.362 205.789 171.924C208.64 181.487 215.4 184.562 220.894 179.629" stroke="#263238" stroke-width="0.75" stroke-linecap="round" stroke-linejoin="round"/>
</g>
</g>
<path d="M223.601 169.137C223.601 169.137 221.759 149.708 212.196 149.099C202.634 148.491 202.938 162.362 205.789 171.924C208.64 181.487 215.4 184.562 220.894 179.629" stroke="#263238" stroke-width="0.75" stroke-linecap="round" stroke-linejoin="round"/>
<path d="M188.683 182.096L219.532 228.979L205.341 247.175C198.95 234.845 191.847 222.897 184.07 211.392C173.578 196.592 172.345 194.125 172.345 194.125L188.683 182.096Z" fill="white"/>
<mask id="mask5_341_2892" style="mask-type:luminance" maskUnits="userSpaceOnUse" x="172" y="182" width="48" height="66">
<path d="M188.683 182.096L219.532 228.979L205.341 247.175C198.95 234.845 191.847 222.897 184.07 211.392C173.578 196.592 172.345 194.125 172.345 194.125L188.683 182.096Z" fill="white"/>
</mask>
<g mask="url(#mask5_341_2892)">
<path d="M188.683 182.096L172.345 194.125C172.345 194.125 173.258 195.935 179.985 205.593L197.252 195.118L188.683 182.096Z" fill="#FF206E"/>
<path opacity="0.5" d="M188.683 182.096L172.345 194.125C172.345 194.125 173.258 195.935 179.985 205.593L197.252 195.118L188.683 182.096Z" fill="white"/>
</g>
<path d="M188.683 182.096L219.532 228.979L205.341 247.175C198.95 234.845 191.847 222.897 184.07 211.392C173.578 196.592 172.345 194.125 172.345 194.125L188.683 182.096Z" stroke="#263238" stroke-width="0.75" stroke-linecap="round" stroke-linejoin="round"/>
<path d="M268.017 298.688C268.017 298.688 272.951 288.5 273.88 282.029C274.809 275.558 275.113 271.842 278.813 268.767C282.513 265.692 294.542 253.342 296.432 248.713C298.322 244.084 299.507 248.409 300.436 252.109C301.365 255.809 301.045 259.205 297.97 261.367C295.803 262.975 293.835 264.836 292.107 266.909L294.878 269.071C294.878 269.071 333.432 254.576 337.453 253.054C341.473 251.532 345.157 252.733 345.462 255.825C345.766 258.916 344.548 259.221 342.69 260.15C340.832 261.079 320.49 268.158 317.703 269.392L314.932 270.625L317.095 272.787C317.095 272.787 328.195 272.483 333.753 272.179C339.311 271.874 347.624 270.945 348.857 272.787C349.407 273.612 349.618 274.617 349.445 275.593C349.272 276.569 348.728 277.44 347.928 278.025C347.28 278.647 346.499 279.114 345.645 279.391C344.791 279.668 343.885 279.749 342.995 279.627C340.224 279.627 316.47 281.469 316.47 281.469L317.095 284.865C317.095 284.865 342.386 288.869 343.299 290.102C344.212 291.336 344.228 291.96 343.299 293.802C342.37 295.644 341.697 295.66 339.295 295.66C336.892 295.66 316.87 292.569 316.87 292.569C316.87 292.569 326.737 298.127 327.97 299.056C329.204 299.985 333.512 300.658 332.279 302.756C331.046 304.854 330.437 305.527 328.579 305.223C326.721 304.918 313.475 299.056 313.475 299.056C313.475 299.056 300.212 300.898 295.855 301.218C292.649 301.367 289.435 301.26 286.245 300.898L273.912 308.907L268.017 298.688Z" fill="white" stroke="#263238" stroke-width="0.75" stroke-linecap="round" stroke-linejoin="round"/>
<path d="M180.434 284.8C180.434 284.8 171.48 247.479 167.78 239.15C164.08 230.821 143.113 223.132 132.926 241.312C122.739 259.492 131.997 280.171 135.713 294.971C139.429 309.771 162.846 376.66 166.242 385.037C169.638 393.414 175.853 391.444 179.2 390.595C182.548 389.746 276.346 314.096 276.346 314.096L268.946 297.453L196.163 334.822L180.434 284.8Z" fill="white"/>
<mask id="mask6_341_2892" style="mask-type:luminance" maskUnits="userSpaceOnUse" x="128" y="230" width="149" height="162">
<path d="M180.434 284.8C180.434 284.8 171.48 247.479 167.78 239.15C164.08 230.821 143.113 223.132 132.926 241.312C122.739 259.492 131.997 280.171 135.713 294.971C139.429 309.771 162.846 376.66 166.242 385.037C169.638 393.414 175.853 391.444 179.2 390.595C182.548 389.746 276.346 314.096 276.346 314.096L268.946 297.453L196.163 334.822L180.434 284.8Z" fill="white"/>
</mask>
<g mask="url(#mask6_341_2892)">
<path d="M177.807 366.857C180.183 359.637 182.925 352.542 186.024 345.601C189.451 338.746 169.574 361.379 165.457 349.029C161.341 336.68 135.296 274.98 140.086 254.414C142.163 244.859 147.754 236.432 155.751 230.804C148.11 228.994 138.756 230.916 132.926 241.328C122.755 259.524 131.997 280.186 135.713 294.986C139.429 309.786 162.846 376.675 166.242 385.052C169.638 393.429 175.852 391.459 179.2 390.61C181.667 389.938 232.058 349.686 259.287 327.854L177.807 366.857Z" fill="#FF206E"/>
<path opacity="0.5" d="M177.807 366.857C180.183 359.637 182.925 352.542 186.024 345.601C189.451 338.746 169.574 361.379 165.457 349.029C161.341 336.68 135.296 274.98 140.086 254.414C142.163 244.859 147.754 236.432 155.751 230.804C148.11 228.994 138.756 230.916 132.926 241.328C122.755 259.524 131.997 280.186 135.713 294.986C139.429 309.786 162.846 376.675 166.242 385.052C169.638 393.429 175.852 391.459 179.2 390.61C181.667 389.938 232.058 349.686 259.287 327.854L177.807 366.857Z" fill="white"/>
</g>
<path d="M180.434 284.8C180.434 284.8 171.48 247.479 167.78 239.15C164.08 230.821 143.113 223.132 132.926 241.312C122.739 259.492 131.997 280.171 135.713 294.971C139.429 309.771 162.846 376.66 166.242 385.037C169.638 393.414 175.853 391.444 179.2 390.595C182.548 389.746 276.346 314.096 276.346 314.096L268.946 297.453L196.163 334.822L180.434 284.8Z" stroke="#263238" stroke-width="0.75" stroke-linecap="round" stroke-linejoin="round"/>
<path d="M258.15 303.62L266.479 320.583" stroke="#263238" stroke-width="0.75" stroke-linecap="round" stroke-linejoin="round"/>
<path d="M62.4972 218.52L19.8907 248.072C19.8907 248.072 40.8896 270.272 38.7273 328.511C37.1255 372.992 43.0039 423.495 51.5412 433.762H96.9026C96.9026 433.762 81.2216 347.268 82.3428 297.71C83.2237 260.053 71.9154 233.912 62.4972 218.52Z" fill="white" stroke="#263238" stroke-width="0.75" stroke-linecap="round" stroke-linejoin="round"/>
<path d="M67.6227 218.52L25.0162 248.072C25.0162 248.072 46.0151 270.272 43.8367 328.511C42.235 372.992 48.1134 423.495 56.6507 433.762H102.028C102.028 433.762 86.3631 347.268 87.4843 297.71C88.3332 260.053 77.0249 233.912 67.6227 218.52Z" fill="#263238" stroke="#263238" stroke-width="0.75" stroke-linecap="round" stroke-linejoin="round"/>
<path d="M62.4972 218.52H67.6228L25.0163 248.072H19.9068L62.4972 218.52Z" fill="white" stroke="#263238" stroke-width="0.75" stroke-linecap="round" stroke-linejoin="round"/>
</g>
<path d="M341.217 46.0756C341.233 46.7282 341.054 47.3707 340.703 47.9211C340.352 48.4715 339.845 48.9048 339.246 49.1657C338.648 49.4265 337.985 49.5031 337.343 49.3856C336.701 49.2681 336.109 48.9619 335.641 48.506C335.174 48.0501 334.853 47.4653 334.72 46.8263C334.587 46.1872 334.647 45.523 334.893 44.9183C335.139 44.3136 335.559 43.796 336.101 43.4315C336.643 43.067 337.28 42.8723 337.933 42.8721C338.79 42.8718 339.614 43.2068 340.227 43.8053C340.841 44.4039 341.196 45.2187 341.217 46.0756Z" fill="#263238"/>
<path d="M326.929 62.7499L337.933 46.0757L356.529 61.4685" stroke="#263238" stroke-linecap="round" stroke-linejoin="round"/>
<path d="M316.617 15.4208C318.307 11.4505 321.108 8.04013 324.691 5.59111C328.902 2.6241 333.819 0.78726 338.961 0.25978C344.953 -0.377779 351.009 0.498444 356.565 2.80644C361.812 4.72659 366.552 7.79851 370.426 11.7912C373.783 15.2463 376.115 19.5487 377.164 24.227C378.132 28.5996 377.755 33.1585 376.081 37.3173C374.946 40.3679 373.05 43.0858 370.57 45.2191C368.35 47.1069 365.85 48.6479 363.158 49.7888C360.576 50.8757 356.007 52.6132 349.454 55.0012C347.921 55.5572 346.423 56.2009 344.966 56.929C343.963 57.4154 343.025 58.023 342.174 58.7379C341.497 59.3105 340.884 59.9528 340.345 60.6538C339.828 61.3321 338.973 62.534 337.782 64.2239C335.376 67.9844 332.227 69.0951 328.337 67.556C327.376 67.2078 326.495 66.6754 325.743 65.9892C324.992 65.303 324.385 64.4765 323.957 63.5575C323.528 62.4818 323.33 61.3296 323.375 60.174C323.421 59.0185 323.709 57.885 324.222 56.8457C326.217 51.3007 330.353 46.7643 335.725 44.2314C338.799 42.8151 341.944 41.552 345.146 40.4471C348.527 39.2571 351.006 38.3169 352.57 37.6505C354.122 36.9846 355.572 36.1074 356.878 35.0444C358.185 33.9887 359.193 32.6149 359.801 31.0578C360.418 29.5812 360.703 27.9902 360.639 26.3941C360.575 24.798 360.162 23.2345 359.428 21.8112C357.818 18.6785 355.046 16.2824 351.692 15.1233C347.36 13.4334 343.75 13.2708 340.863 14.6353C337.356 16.4811 334.288 19.0451 331.862 22.1563C328.766 26.0358 325.349 27.2259 321.611 25.7264C320.563 25.3386 319.607 24.7396 318.806 23.9672C318.004 23.1949 317.374 22.2662 316.954 21.24C316.511 20.3406 316.252 19.3629 316.195 18.3639C316.137 17.3648 316.28 16.3644 316.617 15.4208ZM319.902 90.6307C317.577 89.7591 315.664 88.062 314.536 85.8705C313.958 84.7182 313.645 83.4537 313.62 82.1677C313.595 80.8817 313.859 79.6062 314.391 78.4329C314.825 77.2689 315.5 76.2072 316.372 75.3158C317.244 74.4244 318.295 73.7229 319.457 73.2562C320.623 72.7642 321.877 72.5106 323.145 72.5106C324.412 72.5106 325.667 72.7642 326.833 73.2562C328 73.6907 329.066 74.3526 329.97 75.2025C330.873 76.0524 331.595 77.0731 332.092 78.204C332.589 79.3349 332.852 80.5531 332.864 81.7862C332.876 83.0193 332.638 84.2423 332.163 85.3826C331.747 86.6044 331.064 87.7202 330.161 88.6501C329.258 89.58 328.158 90.301 326.941 90.7616C324.662 91.5985 322.148 91.5518 319.902 90.6307Z" fill="#FF206E"/>
</svg>
