<svg width="22" height="29" viewBox="0 0 22 29" fill="none" xmlns="http://www.w3.org/2000/svg">
<path fill-rule="evenodd" clip-rule="evenodd" d="M16.9938 24.8766H0.5C0.5 27.1875 2.35781 29 4.62344 29H16.9484C19.2141 29 21.0719 27.1422 21.0719 24.8766V7.83906C21.0719 7.74844 21.0266 7.70312 20.9359 7.70312H17.1297C17.0391 7.70312 16.9938 7.74844 16.9938 7.83906V24.8766ZM16.9938 0C19.2594 0 21.1172 1.85781 21.1172 4.16875H4.62344V21.2062C4.62344 21.2969 4.53281 21.3422 4.4875 21.3422H0.635938C0.545313 21.3422 0.5 21.2516 0.5 21.2062V4.16875C0.5 1.85781 2.35781 0 4.62344 0H16.9938Z" fill="#CBD5E1"/>
</svg>
