<svg width="26" height="37" viewBox="0 0 26 37" fill="none" xmlns="http://www.w3.org/2000/svg">
<path d="M17.3762 15.8905C16.5511 16.3114 15.6189 16.4791 14.6978 16.3723C13.7768 16.2655 12.9084 15.889 12.2029 15.2905C11.4975 14.6921 10.9867 13.8987 10.7356 13.0112C10.4844 12.1236 10.5042 11.1819 10.7923 10.3055C11.0804 9.42909 11.624 8.65758 12.3539 8.0889C13.0838 7.52021 13.9672 7.17999 14.892 7.11142C15.8167 7.04285 16.7411 7.24902 17.5478 7.70377C18.3545 8.15851 19.0071 8.84133 19.4228 9.66553C19.7005 10.2084 19.8679 10.8004 19.9153 11.4076C19.9628 12.0149 19.8893 12.6255 19.6993 13.2045C19.5092 13.7835 19.2062 14.3196 18.8076 14.7821C18.4089 15.2445 17.9225 15.6243 17.3762 15.8998V15.8905ZM12.3806 0.881476C16.2102 -0.507508 20.5887 -0.431969 23.8664 2.39533C24.5585 2.96192 25.1027 3.6865 25.4525 4.50732C25.7827 5.57103 24.2912 4.39941 24.0881 4.24833C23.0544 3.54571 21.934 2.97836 20.7546 2.56028C14.2985 0.594738 8.18976 4.1728 4.41596 9.73644C2.87811 12.1902 1.70422 14.8517 0.930551 17.6387C0.859428 17.9802 0.748601 18.3123 0.600305 18.6284C0.434407 18.9429 0.524333 17.7851 0.524333 17.7466C0.66279 16.5816 0.885599 15.4281 1.19103 14.295C2.93993 8.23184 6.81451 3.18309 12.3806 0.870685V0.881476ZM12.438 33.2443V19.7353C12.8241 19.7738 13.1915 19.7923 13.5791 19.7923C15.3387 19.7978 17.0658 19.3203 18.57 18.4126V33.2428C18.57 34.51 18.3374 35.4473 17.7638 36.0578C17.4796 36.3675 17.1311 36.6121 16.7423 36.7745C16.3536 36.9369 15.9339 37.0132 15.5125 36.9981C15.097 37.0129 14.6834 36.9364 14.3009 36.7741C13.9185 36.6119 13.5768 36.3678 13.3 36.0593C12.7295 35.4365 12.4318 34.4977 12.4318 33.2459L12.438 33.2443Z" fill="#CBD5E1"/>
</svg>
