<svg width="34" height="33" viewBox="0 0 34 33" fill="none" xmlns="http://www.w3.org/2000/svg">
<path d="M28 4.125H6C5.63533 4.125 5.28559 4.26987 5.02773 4.52773C4.76987 4.78559 4.625 5.13533 4.625 5.5V27.5C4.625 27.8647 4.76987 28.2144 5.02773 28.4723C5.28559 28.7301 5.63533 28.875 6 28.875H28C28.3647 28.875 28.7144 28.7301 28.9723 28.4723C29.2301 28.2144 29.375 27.8647 29.375 27.5V5.5C29.375 5.13533 29.2301 4.78559 28.9723 4.52773C28.7144 4.26987 28.3647 4.125 28 4.125ZM11.9661 25.2134H8.29212V13.4021H11.9661V25.2134ZM10.1291 11.7893C9.56461 11.7893 9.02322 11.565 8.62405 11.1658C8.22488 10.7667 8.00062 10.2253 8.00062 9.66075C8.00062 9.09624 8.22488 8.55484 8.62405 8.15567C9.02322 7.7565 9.56461 7.53225 10.1291 7.53225C10.6936 7.53225 11.235 7.7565 11.6342 8.15567C12.0334 8.55484 12.2576 9.09624 12.2576 9.66075C12.2576 10.2253 12.0334 10.7667 11.6342 11.1658C11.235 11.565 10.6936 11.7893 10.1291 11.7893ZM25.7147 25.2134H22.0449V19.47C22.0449 18.1005 22.0201 16.3391 20.1364 16.3391C18.2251 16.3391 17.935 17.8324 17.935 19.3738V25.2147H14.2679V13.4035H17.7879V15.0177H17.8387C18.3269 14.0896 19.5259 13.1106 21.3092 13.1106C25.0273 13.1106 25.7134 15.5554 25.7134 18.7371L25.7147 25.2134Z" fill="#CBD5E1"/>
</svg>
