<svg width="81" height="81" viewBox="0 0 81 81" fill="none" xmlns="http://www.w3.org/2000/svg">
<path d="M66.8047 20.1839H56.8054V13.5177C56.8054 9.84125 53.8155 6.85144 50.1391 6.85144H30.1403C26.4639 6.85144 23.4741 9.84125 23.4741 13.5177V20.1839H13.4747C9.79829 20.1839 6.80847 23.1738 6.80847 26.8502V63.5146C6.80847 67.191 9.79829 70.1808 13.4747 70.1808H66.8047C70.4812 70.1808 73.471 67.191 73.471 63.5146V26.8502C73.471 23.1738 70.4812 20.1839 66.8047 20.1839ZM50.1391 13.5177V20.1839H30.1403V13.5177H50.1391ZM26.8072 26.8502H66.8047V36.8496H13.4747V26.8502H26.8072ZM13.4747 63.5146V43.5158H33.4735V50.1821H46.806V43.5158H66.8047L66.8081 63.5146H13.4747Z" fill="#FF206E"/>
</svg>
