<svg width="81" height="81" viewBox="0 0 81 81" fill="none" xmlns="http://www.w3.org/2000/svg">
<path d="M67.5 20.25H57.375V13.5C57.375 9.77737 54.3476 6.75 50.625 6.75H30.375C26.6524 6.75 23.625 9.77737 23.625 13.5V20.25H13.5C9.77737 20.25 6.75 23.2774 6.75 27V37.125H74.25V27C74.25 23.2774 71.2226 20.25 67.5 20.25ZM30.375 13.5H50.625V20.25H30.375V13.5ZM47.25 47.25H33.75V40.5H6.75V64.125C6.75 67.8476 9.77737 70.875 13.5 70.875H67.5C71.2226 70.875 74.25 67.8476 74.25 64.125V40.5H47.25V47.25Z" fill="#FF206E"/>
</svg>
