<svg width="622" height="442" viewBox="0 0 622 442" fill="none" xmlns="http://www.w3.org/2000/svg">
<path d="M319.882 434.135L251.567 281.168H417.108L621.25 415.827" fill="white"/>
<path d="M319.882 434.135L251.567 281.168H417.108L621.25 415.827" stroke="#263238" stroke-width="0.75" stroke-linecap="round" stroke-linejoin="round"/>
<path d="M302.935 428.113L251.567 291.372V281.168L324.238 441.263L302.935 428.113Z" fill="#263238" stroke="#263238" stroke-width="0.75" stroke-linecap="round" stroke-linejoin="round"/>
<path d="M346.214 287.495L416.627 370.033L331.158 389.943L282.593 297.682L346.214 287.495Z" fill="white" stroke="#263238" stroke-width="0.75" stroke-linecap="round" stroke-linejoin="round"/>
<path d="M331.158 389.943V392.378L415.17 375.383L416.627 370.033L331.158 389.943Z" fill="#263238" stroke="#263238" stroke-width="0.75" stroke-linecap="round" stroke-linejoin="round"/>
<path d="M343.555 317.191L347.159 322.509L356.321 320.027L352.509 314.837L343.555 317.191Z" fill="#263238"/>
<path d="M378.233 349.723L373.876 343.829L363.465 346.632L367.533 352.654L378.233 349.723Z" fill="#263238"/>
<path d="M336.075 306.107L338.75 310.08L347.368 307.885L344.661 304.201L336.075 306.107Z" fill="#263238"/>
<path d="M352.669 330.662L357.603 337.966L367.678 335.419L362.232 328.035L352.669 330.662Z" fill="#263238"/>
<path d="M378.762 334.09L370.128 336.284L374.453 342.147L383.247 339.776L378.762 334.09Z" fill="#263238"/>
<path d="M358.484 339.248L362.6 345.366L372.947 342.563L368.607 336.669L358.484 339.248Z" fill="#263238"/>
<path d="M326.321 308.27L328.98 312.563L337.245 310.449L334.538 306.444L326.321 308.27Z" fill="#263238"/>
<path d="M348.008 323.775L351.82 329.397L361.303 326.77L357.25 321.276L348.008 323.775Z" fill="#263238"/>
<path d="M339.615 311.346L342.69 315.911L351.564 313.572L348.296 309.135L339.615 311.346Z" fill="#263238"/>
<path d="M320.971 321.644L318.28 316.791L308.461 319.29L311.2 324.223L320.971 321.644Z" fill="#263238"/>
<path d="M306.859 333.386L313.603 331.576L310.479 325.938L303.848 327.683L306.859 333.386Z" fill="#263238"/>
<path d="M323.405 303.561L325.504 306.957L333.657 305.147L331.462 301.911L323.405 303.561Z" fill="#263238"/>
<path d="M317.543 315.462L314.948 310.785L304.969 312.979L307.724 317.96L317.543 315.462Z" fill="#263238"/>
<path d="M313.715 305.531L315.701 309.118L323.998 307.292L321.868 303.865L313.715 305.531Z" fill="#263238"/>
<path d="M299.764 319.995L306.267 318.329L303.48 313.316L296.993 314.741L299.764 319.995Z" fill="#263238"/>
<path d="M302.15 307.901L304.232 311.649L314.211 309.455L312.209 305.835L302.15 307.901Z" fill="#263238"/>
<path d="M333.496 319.85L336.86 325.28L345.67 322.909L342.066 317.591L333.496 319.85Z" fill="#263238"/>
<path d="M356.113 338.351L351.196 331.079L342.018 333.609L346.47 340.801L356.113 338.351Z" fill="#263238"/>
<path d="M316.438 310.448L319.001 315.093L327.49 312.931L324.815 308.606L316.438 310.448Z" fill="#263238"/>
<path d="M318.36 340.129L311.44 342.035L315.028 348.81L322.156 347L318.36 340.129Z" fill="#263238"/>
<path d="M337.661 326.578L341.217 332.313L350.331 329.814L346.535 324.176L337.661 326.578Z" fill="#263238"/>
<path d="M331.222 318.953L328.291 314.228L319.738 316.406L322.428 321.276L331.222 318.953Z" fill="#263238"/>
<path d="M347.287 369.168L337.501 371.667L340.993 377.962L350.811 375.543L347.287 369.168Z" fill="#263238"/>
<path d="M332.135 300.293L340.512 298.579L336.011 292.46L327.762 293.822L332.135 300.293Z" fill="#263238"/>
<path d="M311.472 304.507L307.42 297.187L297.153 298.884L301.413 306.573L311.472 304.507Z" fill="#263238"/>
<path d="M324.799 328.548L321.708 322.958L311.937 325.536L315.06 331.174L324.799 328.548Z" fill="#263238"/>
<path d="M349.738 348.842L345.798 342.483L335.611 345.078L339.263 351.677L349.738 348.842Z" fill="#263238"/>
<path d="M344.997 341.186L340.544 334.01L330.95 336.653L334.874 343.748L344.997 341.186Z" fill="#263238"/>
<path d="M361.11 345.767L356.978 339.632L347.271 342.099L351.212 348.441L361.11 345.767Z" fill="#263238"/>
<path d="M335.387 325.68L332.023 320.234L323.149 322.589L326.241 328.147L335.387 325.68Z" fill="#263238"/>
<path d="M329.78 313.86L332.696 318.553L341.201 316.311L338.109 311.73L329.78 313.86Z" fill="#263238"/>
<path d="M339.743 332.729L336.187 326.979L326.961 329.461L330.229 335.356L339.743 332.729Z" fill="#263238"/>
<path d="M366.06 353.071L361.975 347.048L352.013 349.739L355.809 355.874L366.06 353.071Z" fill="#263238"/>
<path d="M359.477 364.556L355.136 357.556L344.18 360.567L348.024 367.471L359.477 364.556Z" fill="#263238"/>
<path d="M326.641 355.089L322.893 348.314L315.733 350.14L319.385 357.059L326.641 355.089Z" fill="#263238"/>
<path d="M314.34 332.889L307.564 334.715L310.752 340.722L317.623 338.832L314.34 332.889Z" fill="#263238"/>
<path d="M346.551 367.855L342.738 360.952L333.032 363.611L336.764 370.338L346.551 367.855Z" fill="#263238"/>
<path d="M328.771 335.74L325.52 329.861L315.781 332.488L319.081 338.431L328.771 335.74Z" fill="#263238"/>
<path d="M333.016 301.591L335.194 304.81L343.716 302.92L341.457 299.861L333.016 301.591Z" fill="#263238"/>
<path d="M296.288 313.412L302.743 311.986L300.661 308.206L294.222 309.519L296.288 313.412Z" fill="#263238"/>
<path d="M322.573 302.232L330.581 300.598L326.177 294.079L318.328 295.377L322.573 302.232Z" fill="#263238"/>
<path d="M312.978 304.201L321.067 302.551L316.774 295.632L308.942 296.929L312.978 304.201Z" fill="#263238"/>
<path d="M309.759 324.624L307.004 319.658L300.468 321.324L303.143 326.354L309.759 324.624Z" fill="#263238"/>
<path d="M342.082 298.259L349.322 296.77L344.773 291.02L337.613 292.189L342.082 298.259Z" fill="#263238"/>
<path d="M299.908 306.876L295.615 299.124L289.272 300.181L293.517 308.174L299.908 306.876Z" fill="#263238"/>
<path d="M336.043 372.036L328.355 373.99L331.687 380.269L339.535 378.331L336.043 372.036Z" fill="#263238"/>
<path d="M372.579 362.713L361.751 365.468L365.708 371.859L376.888 369.088L372.579 362.713Z" fill="#263238"/>
<path d="M360.278 365.852L348.745 368.783L352.285 375.174L364.218 372.227L360.278 365.852Z" fill="#263238"/>
<path d="M385.393 359.445L374.085 362.328L378.393 368.719L390.102 365.82L385.393 359.445Z" fill="#263238"/>
<path d="M396.525 356.611L386.915 359.062L391.64 365.453L401.571 362.986L396.525 356.611Z" fill="#263238"/>
<path d="M331.59 364.011L324.142 366.045L327.65 372.676L335.307 370.722L331.59 364.011Z" fill="#263238"/>
<path d="M354.335 356.274L350.539 350.14L339.999 352.991L343.459 359.254L354.335 356.274Z" fill="#263238"/>
<path d="M371.714 361.432L366.909 354.336L356.61 357.155L360.95 364.171L371.714 361.432Z" fill="#263238"/>
<path d="M342.018 359.638L338.542 353.375L328.819 356.018L332.311 362.297L342.018 359.638Z" fill="#263238"/>
<path d="M323.454 364.731L330.87 362.697L327.378 356.402L320.09 358.372L323.454 364.731Z" fill="#263238"/>
<path d="M333.416 344.132L329.508 337.053L319.801 339.728L323.614 346.615L333.416 344.132Z" fill="#263238"/>
<path d="M384.464 358.181L379.162 350.989L368.398 353.936L373.22 361.048L384.464 358.181Z" fill="#263238"/>
<path d="M337.821 352.062L334.153 345.447L324.351 347.945L328.099 354.705L337.821 352.062Z" fill="#263238"/>
<path d="M363.737 327.62L369.199 335.02L377.769 332.842L371.874 325.377L363.737 327.62Z" fill="#263238"/>
<path d="M353.086 313.172L360.678 311.17L357.266 306.861L349.834 308.751L353.086 313.172Z" fill="#263238"/>
<path d="M346.23 303.865L348.889 307.485L356.289 305.611L353.614 302.231L346.23 303.865Z" fill="#263238"/>
<path d="M395.532 355.361L389.798 348.073L380.668 350.572L385.986 357.796L395.532 355.361Z" fill="#263238"/>
<path d="M354.015 314.436L357.843 319.61L365.659 317.495L361.655 312.418L354.015 314.436Z" fill="#263238"/>
<path d="M375.382 343.412L379.739 349.322L388.821 346.84L384.224 341.025L375.382 343.412Z" fill="#263238"/>
<path d="M345.269 302.584L352.621 300.966L350.331 298.051L343.043 299.54L345.269 302.584Z" fill="#263238"/>
<path d="M362.808 326.37L370.897 324.127L366.653 318.746L358.772 320.876L362.808 326.37Z" fill="#263238"/>
<path d="M427.791 296.721V309.823C426.46 311.11 424.994 312.248 423.418 313.219C421 314.677 401.09 318.024 401.09 318.024L426.334 345.719C426.334 345.719 449.479 343.188 455.966 341.346C462.757 339.392 461.3 314.629 461.3 314.629L427.791 296.721Z" fill="white" stroke="#263238" stroke-width="0.75" stroke-linecap="round" stroke-linejoin="round"/>
<path d="M427.791 296.721V309.823C427.791 309.823 427.439 310.176 426.862 310.688L456.382 341.218C462.693 338.383 461.3 314.677 461.3 314.677L427.791 296.721Z" fill="#263238" stroke="#263238" stroke-width="0.75" stroke-linecap="round" stroke-linejoin="round"/>
<path d="M383.119 129.178V268.066L488.978 351.581V136.947L383.119 129.178Z" fill="white" stroke="#263238" stroke-width="0.75" stroke-linecap="round" stroke-linejoin="round"/>
<path d="M390.406 136.466V253.49L479.271 308.366V144.235L390.406 136.466Z" fill="#FF206E" stroke="#263238" stroke-width="0.75" stroke-linecap="round" stroke-linejoin="round"/>
<path d="M499.661 136.947H488.978V351.629H499.661V136.947Z" fill="#263238" stroke="#263238" stroke-width="0.75" stroke-linecap="round" stroke-linejoin="round"/>
<path d="M396.237 143.755L396.717 248.157L471.006 290.395V161.118L420.023 153.397L416.627 146.174L396.237 143.755Z" fill="white" stroke="#263238" stroke-width="0.75" stroke-linecap="round" stroke-linejoin="round"/>
<path d="M401.09 156.376V245.241L466.649 280.207V168.037L401.09 156.376Z" fill="#FF206E" stroke="#263238" stroke-width="0.75" stroke-linecap="round" stroke-linejoin="round"/>
<path d="M439.433 243.113C448.683 240.007 452.711 227.156 448.432 214.409C444.152 201.662 433.184 193.847 423.934 196.952C414.684 200.058 410.655 212.909 414.935 225.656C419.215 238.403 430.183 246.219 439.433 243.113Z" fill="#263238"/>
<path d="M433.622 221.488L439.852 214.584C440.273 213.969 440.488 213.236 440.468 212.492C440.448 211.747 440.193 211.027 439.74 210.436C438.811 209.106 437.354 208.834 436.537 209.779L430.546 216.426L424.54 206.816C423.675 205.422 422.217 204.99 421.336 205.855C420.872 206.428 420.608 207.138 420.585 207.875C420.562 208.613 420.781 209.338 421.208 209.939L427.439 219.95L421.096 226.821C420.675 227.437 420.461 228.171 420.484 228.916C420.507 229.662 420.766 230.381 421.224 230.97C421.59 231.549 422.162 231.968 422.826 232.139C423.114 232.211 423.416 232.2 423.699 232.11C423.982 232.019 424.234 231.852 424.427 231.627L430.434 224.979L436.425 234.59C436.793 235.243 437.402 235.726 438.122 235.935C438.399 236.022 438.694 236.032 438.976 235.965C439.259 235.897 439.517 235.754 439.724 235.551C440.184 234.974 440.443 234.264 440.463 233.527C440.484 232.791 440.263 232.067 439.836 231.466L433.622 221.488Z" fill="white"/>
<path d="M412.735 186.489L449.447 197.269" stroke="#263238" stroke-width="0.75" stroke-linecap="round" stroke-linejoin="round"/>
<path d="M411.277 176.287L458.865 189.565" stroke="#263238" stroke-width="0.75" stroke-linecap="round" stroke-linejoin="round"/>
<path d="M444.081 405.111C444.081 405.111 420.872 407.257 412.287 414.129C403.701 421 410.14 424.444 418.293 426.59C426.446 428.737 462.982 425.293 467.707 420.568C472.432 415.842 467.707 404.246 444.081 405.111Z" fill="white" stroke="#263238" stroke-width="0.75" stroke-linecap="round" stroke-linejoin="round"/>
<path d="M467.707 420.632C468.62 419.721 469.186 418.52 469.309 417.237C458.913 416.724 445.282 419.735 432.901 423.644C428.721 424.974 424.476 426.091 420.183 426.991C430.979 428.289 463.286 424.989 467.707 420.632Z" fill="#263238" stroke="#263238" stroke-width="0.75" stroke-linecap="round" stroke-linejoin="round"/>
<path d="M361.799 150.194L378.762 159.019" stroke="#263238" stroke-linecap="round" stroke-linejoin="round"/>
<path d="M352.061 145.132L357.106 147.759" stroke="#263238" stroke-linecap="round" stroke-linejoin="round"/>
<path d="M365.531 194.658L371.282 195.314" stroke="#263238" stroke-linecap="round" stroke-linejoin="round"/>
<path d="M343.523 192.111L359.028 193.905" stroke="#263238" stroke-linecap="round" stroke-linejoin="round"/>
<path d="M369.151 235.903L349.93 241.237" stroke="#263238" stroke-linecap="round" stroke-linejoin="round"/>
<mask id="mask0_341_2892" style="mask-type:luminance" maskUnits="userSpaceOnUse" x="0" y="65" width="370" height="366">
<path d="M369.151 65.0444H0.75V430.242H369.151V65.0444Z" fill="white"/>
</mask>
<g mask="url(#mask0_341_2892)">
<path d="M199.558 410.83C199.558 410.83 257.83 385.089 289.16 383.151L312.017 433.654H139.381L199.558 410.83Z" fill="#263238" stroke="#263238" stroke-width="0.75" stroke-linecap="round" stroke-linejoin="round"/>
<path d="M270.484 106.53C270.484 106.53 311.505 155.255 320.138 164.193C328.771 173.13 329.092 179.617 326.305 183.622C323.518 187.626 302.567 195.042 280.975 208.913C259.384 222.784 198.005 258.567 197.396 259.817C196.787 261.066 190.909 216.57 190.909 216.57L293.613 174.316L293.309 171.224L259.992 109.541L270.484 106.53Z" fill="white"/>
<mask id="mask1_341_2892" style="mask-type:luminance" maskUnits="userSpaceOnUse" x="190" y="106" width="138" height="154">
<path d="M270.484 106.53C270.484 106.53 311.505 155.255 320.138 164.193C328.771 173.13 329.092 179.617 326.305 183.622C323.518 187.626 302.567 195.042 280.975 208.913C259.384 222.784 198.005 258.567 197.396 259.817C196.787 261.066 190.909 216.57 190.909 216.57L293.613 174.316L293.309 171.224L259.992 109.541L270.484 106.53Z" fill="white"/>
</mask>
<g mask="url(#mask1_341_2892)">
<path d="M309.967 178.448L262.363 108.933L260.073 109.605L293.389 171.289L293.693 174.38L190.989 216.634C190.989 216.634 191.101 217.403 191.262 218.7L197.957 234.061L309.967 178.448Z" fill="#FF206E"/>
<path opacity="0.5" d="M309.967 178.448L262.363 108.933L260.073 109.605L293.389 171.289L293.693 174.38L190.989 216.634C190.989 216.634 191.101 217.403 191.262 218.7L197.957 234.061L309.967 178.448Z" fill="white"/>
</g>
<path d="M270.484 106.53C270.484 106.53 311.505 155.255 320.138 164.193C328.771 173.13 329.092 179.617 326.305 183.622C323.518 187.626 302.567 195.042 280.975 208.913C259.384 222.784 198.005 258.567 197.396 259.817C196.787 261.066 190.909 216.57 190.909 216.57L293.613 174.316L293.309 171.224L259.992 109.541L270.484 106.53Z" stroke="#263238" stroke-width="0.75" stroke-linecap="round" stroke-linejoin="round"/>
<path d="M237.792 85.2429C237.792 85.2429 232.859 80.9182 230.392 85.2429C227.925 89.5676 227.621 96.6473 229.159 97.272C230.696 97.8967 236.863 96.9677 237.792 95.1096C238.721 93.2516 237.792 85.2429 237.792 85.2429Z" fill="white" stroke="#263238" stroke-width="0.75" stroke-linecap="round" stroke-linejoin="round"/>
<path d="M246.426 83.0807C246.426 83.0807 241.188 77.5386 237.792 79.685C234.396 81.8313 235.325 93.5721 236.559 94.5011C237.792 95.4301 245.192 92.8994 246.169 91.4098C247.146 89.9201 246.426 83.0807 246.426 83.0807Z" fill="white" stroke="#263238" stroke-width="0.75" stroke-linecap="round" stroke-linejoin="round"/>
<path d="M258.15 83.3855C258.15 83.3855 253.521 76.9785 249.213 76.9785C244.904 76.9785 241.797 92.4033 243.35 93.6367C244.904 94.87 255.059 93.3323 255.684 92.4033C256.673 89.4455 257.496 86.4349 258.15 83.3855Z" fill="white" stroke="#263238" stroke-width="0.75" stroke-linecap="round" stroke-linejoin="round"/>
<path d="M267.168 93.8763C267.168 92.0343 266.255 75.9848 260.761 76.9138C255.267 77.8428 249.357 90.8009 249.661 92.9312C249.966 95.0616 267.168 93.8763 267.168 93.8763Z" fill="white" stroke="#263238" stroke-width="0.75" stroke-linecap="round" stroke-linejoin="round"/>
<path d="M293.613 174.379C293.613 174.379 309.342 180.242 315.205 179.921L293.613 174.379Z" fill="white"/>
<path d="M293.613 174.379C293.613 174.379 309.342 180.242 315.205 179.921" stroke="#263238" stroke-width="0.75" stroke-linecap="round" stroke-linejoin="round"/>
<path d="M164.272 434.071C181.026 431.252 202.49 419.736 208.881 405.24C204.075 380.108 198.005 344.71 198.005 323.054C198.005 286.662 207.615 266 203.242 241.365C198.87 216.73 189.676 200.665 179.809 194.178C179.809 194.178 164.704 198.182 149.28 212.678C133.855 227.174 120.288 252.097 115.002 275.851C109.717 299.605 102.669 372.692 102.669 391.817C102.669 410.942 101.291 434.68 101.291 434.68C119.759 434.68 138.228 434.68 156.696 434.68C159.234 434.704 161.77 434.501 164.272 434.071Z" fill="white"/>
<mask id="mask2_341_2892" style="mask-type:luminance" maskUnits="userSpaceOnUse" x="101" y="194" width="108" height="241">
<path d="M164.272 434.071C181.026 431.252 202.49 419.736 208.881 405.24C204.075 380.108 198.005 344.71 198.005 323.054C198.005 286.662 207.615 266 203.242 241.365C198.87 216.73 189.676 200.665 179.809 194.178C179.809 194.178 164.704 198.182 149.28 212.678C133.855 227.174 120.288 252.097 115.002 275.851C109.717 299.605 102.669 372.692 102.669 391.817C102.669 410.942 101.291 434.68 101.291 434.68C119.759 434.68 138.228 434.68 156.696 434.68C159.234 434.704 161.77 434.501 164.272 434.071Z" fill="white"/>
</mask>
<g mask="url(#mask2_341_2892)">
<path d="M208.88 405.224C199.494 413.232 157.224 428.785 151.057 430.163C144.891 431.54 148.318 418.502 157.913 405.48C167.507 392.458 146.252 410.285 142.825 411.647C139.397 413.008 144.202 386.275 144.202 373.205C144.202 360.135 156.551 249.102 156.551 249.102L179.857 206.575L187.866 201.77C185.629 198.796 182.924 196.205 179.857 194.098C179.857 194.098 164.752 198.102 149.328 212.598C133.903 227.094 120.288 252.097 115.002 275.851C109.716 299.605 102.669 372.692 102.669 391.817C102.669 410.942 101.291 434.68 101.291 434.68C119.759 434.68 138.228 434.68 156.696 434.68C159.225 434.681 161.75 434.456 164.24 434.007C181.026 431.252 202.49 419.735 208.88 405.224Z" fill="#FF206E"/>
<path opacity="0.5" d="M208.88 405.224C199.494 413.232 157.224 428.785 151.057 430.163C144.891 431.54 148.318 418.502 157.913 405.48C167.507 392.458 146.252 410.285 142.825 411.647C139.397 413.008 144.202 386.275 144.202 373.205C144.202 360.135 156.551 249.102 156.551 249.102L179.857 206.575L187.866 201.77C185.629 198.796 182.924 196.205 179.857 194.098C179.857 194.098 164.752 198.102 149.328 212.598C133.903 227.094 120.288 252.097 115.002 275.851C109.716 299.605 102.669 372.692 102.669 391.817C102.669 410.942 101.291 434.68 101.291 434.68C119.759 434.68 138.228 434.68 156.696 434.68C159.225 434.681 161.75 434.456 164.24 434.007C181.026 431.252 202.49 419.735 208.88 405.224Z" fill="white"/>
</g>
<path d="M164.272 434.071C181.026 431.252 202.49 419.736 208.881 405.24C204.075 380.108 198.005 344.71 198.005 323.054C198.005 286.662 207.615 266 203.242 241.365C198.87 216.73 189.676 200.665 179.809 194.178C179.809 194.178 164.704 198.182 149.28 212.678C133.855 227.174 120.288 252.097 115.002 275.851C109.717 299.605 102.669 372.692 102.669 391.817C102.669 410.942 101.291 434.68 101.291 434.68C119.759 434.68 138.228 434.68 156.696 434.68C159.234 434.704 161.77 434.501 164.272 434.071Z" stroke="#263238" stroke-width="0.75" stroke-linecap="round" stroke-linejoin="round"/>
<path d="M178.912 199.848L205.405 248.092L206.831 274.553C206.831 274.553 214.215 255.684 210.931 243.367C207.647 231.05 178.912 199.848 178.912 199.848Z" fill="#263238" stroke="#263238" stroke-width="0.75" stroke-linecap="round" stroke-linejoin="round"/>
<path d="M206.814 274.569L199.43 386.227L207.647 409.212L213.397 363.226L208.464 271.27L206.814 274.569Z" fill="#263238" stroke="#263238" stroke-width="0.75" stroke-linecap="round" stroke-linejoin="round"/>
<path d="M199.542 154.631C199.542 154.631 200.472 166.66 201.401 172.522C202.33 178.384 187.834 194.786 187.834 194.786L208.801 226.549L232.554 208.049C232.554 208.049 266.191 205.582 269.25 202.795C272.31 200.008 272.342 169.495 272.342 169.495L280.351 164.866C280.351 164.866 272.95 132.831 271.108 125.687L269.25 118.607C269.25 118.607 280.046 114.891 277.58 104.192C275.113 93.492 259.384 88.1742 243.655 90.6089C227.925 93.0435 223.921 98.9379 223.921 98.9379C223.921 98.9379 201.705 98.6336 189.067 109.125C176.429 119.616 184.134 136.259 188.138 142.121C191.546 146.634 195.363 150.821 199.542 154.631Z" fill="white"/>
<mask id="mask3_341_2892" style="mask-type:luminance" maskUnits="userSpaceOnUse" x="182" y="90" width="99" height="137">
<path d="M199.542 154.631C199.542 154.631 200.472 166.66 201.401 172.522C202.33 178.384 187.834 194.786 187.834 194.786L208.801 226.549L232.554 208.049C232.554 208.049 266.191 205.582 269.25 202.795C272.31 200.008 272.342 169.495 272.342 169.495L280.351 164.866C280.351 164.866 272.95 132.831 271.108 125.687L269.25 118.607C269.25 118.607 280.046 114.891 277.58 104.192C275.113 93.492 259.384 88.1742 243.655 90.6089C227.925 93.0435 223.921 98.9379 223.921 98.9379C223.921 98.9379 201.705 98.6336 189.067 109.125C176.429 119.616 184.134 136.259 188.138 142.121C191.546 146.634 195.363 150.821 199.542 154.631Z" fill="white"/>
</mask>
<g mask="url(#mask3_341_2892)">
<path d="M236.735 197.718C230.568 190.173 236.735 161.374 241.54 146.974C246.345 132.575 234.685 126.408 234.685 126.408L269.699 120.369L269.218 118.559C271.586 117.634 273.692 116.144 275.353 114.219L277.243 103.087C274.04 92.9635 258.871 88.0942 243.606 90.4808C227.877 92.9475 223.873 98.8099 223.873 98.8099C223.873 98.8099 201.657 98.5055 189.019 108.997C176.381 119.488 184.086 136.131 188.09 141.993C191.491 146.55 195.309 150.781 199.494 154.631C199.494 154.631 200.423 166.66 201.352 172.522C202.281 178.385 187.834 194.786 187.834 194.786L208.801 226.549L232.554 208.049C232.554 208.049 258.182 206.159 266.768 203.836L269.25 202.795C269.25 202.795 242.934 205.262 236.735 197.718Z" fill="#FF206E"/>
<path opacity="0.5" d="M236.735 197.718C230.568 190.173 236.735 161.374 241.54 146.974C246.345 132.575 234.685 126.408 234.685 126.408L269.699 120.369L269.218 118.559C271.586 117.634 273.692 116.144 275.353 114.219L277.243 103.087C274.04 92.9635 258.871 88.0942 243.606 90.4808C227.877 92.9475 223.873 98.8099 223.873 98.8099C223.873 98.8099 201.657 98.5055 189.019 108.997C176.381 119.488 184.086 136.131 188.09 141.993C191.491 146.55 195.309 150.781 199.494 154.631C199.494 154.631 200.423 166.66 201.352 172.522C202.281 178.385 187.834 194.786 187.834 194.786L208.801 226.549L232.554 208.049C232.554 208.049 258.182 206.159 266.768 203.836L269.25 202.795C269.25 202.795 242.934 205.262 236.735 197.718Z" fill="white"/>
<path d="M254.755 140.455C254.755 140.455 254.755 139.974 254.755 139.222C254.755 136.835 255.155 131.677 259.143 130.268C264.381 128.426 268.754 133.359 268.754 133.359L269.058 138.293C268.305 137.351 267.314 136.626 266.188 136.192C265.063 135.759 263.842 135.632 262.651 135.826C259.586 136.47 256.814 138.095 254.755 140.455Z" fill="#263238"/>
<path d="M263.708 150.322C263.708 152.869 263.004 154.951 262.107 154.951C261.21 154.951 260.505 152.869 260.505 150.322C260.505 147.775 261.194 145.693 262.107 145.693C263.02 145.693 263.708 147.759 263.708 150.322Z" fill="#263238"/>
<path d="M253.986 182.629C252.272 184.407 249.981 184.983 248.876 183.926C247.771 182.869 248.268 180.546 249.981 178.768C251.695 176.991 253.97 176.414 255.075 177.471C256.18 178.528 255.7 180.851 253.986 182.629Z" fill="#263238"/>
</g>
<path d="M199.542 154.631C199.542 154.631 200.472 166.66 201.401 172.522C202.33 178.384 187.834 194.786 187.834 194.786L208.801 226.549L232.554 208.049C232.554 208.049 266.191 205.582 269.25 202.795C272.31 200.008 272.342 169.495 272.342 169.495L280.351 164.866C280.351 164.866 272.95 132.831 271.108 125.687L269.25 118.607C269.25 118.607 280.046 114.891 277.58 104.192C275.113 93.492 259.384 88.1742 243.655 90.6089C227.925 93.0435 223.921 98.9379 223.921 98.9379C223.921 98.9379 201.705 98.6336 189.067 109.125C176.429 119.616 184.134 136.259 188.138 142.121C191.546 146.634 195.363 150.821 199.542 154.631Z" stroke="#263238" stroke-width="0.75" stroke-linecap="round" stroke-linejoin="round"/>
<path d="M229.159 124.405C234.717 120.705 269.202 118.559 269.202 118.559C269.202 118.559 279.998 114.842 277.531 104.143C275.065 93.4432 259.336 88.1254 243.606 90.56C227.877 92.9947 223.873 98.8891 223.873 98.8891C223.873 98.8891 201.657 98.5848 189.019 109.076C176.381 119.568 184.086 136.21 188.09 142.072C191.491 146.629 195.309 150.86 199.494 154.71C199.494 154.71 200.007 161.309 200.648 167.123L210.258 169.83L220.75 164.272L231.241 161.806C231.241 161.806 223.521 155.943 227.845 150.401C232.17 144.859 240.179 143.001 240.483 138.676C240.787 134.352 223.601 128.105 229.159 124.405Z" fill="#263238" stroke="#263238" stroke-width="0.75" stroke-linecap="round" stroke-linejoin="round"/>
<path d="M262.827 106.482C262.827 106.482 259.207 99.851 265.839 101.052C272.47 102.254 272.47 113.722 267.04 116.125C261.61 118.527 232.074 113.113 215.784 117.935C199.494 122.756 188.058 136.018 188.058 136.018" stroke="white" stroke-miterlimit="10" stroke-linecap="round"/>
<path d="M197.108 146.269C197.108 146.269 209.778 135.426 220.013 133.616C230.248 131.806 235.694 131.806 224.241 138.421C212.789 145.036 220.621 143.835 227.861 141.432" stroke="white" stroke-miterlimit="10" stroke-linecap="round"/>
<path d="M223.601 170.055C223.601 170.055 221.759 150.626 212.196 150.017C202.634 149.408 202.938 163.279 205.789 172.842C208.64 182.404 215.4 185.48 220.894 180.546" fill="#FF206E"/>
<mask id="mask4_341_2892" style="mask-type:luminance" maskUnits="userSpaceOnUse" x="204" y="149" width="20" height="34">
<path d="M223.601 170.055C223.601 170.055 221.759 150.626 212.196 150.017C202.634 149.408 202.938 163.279 205.789 172.842C208.64 182.404 215.4 185.48 220.894 180.546" fill="white"/>
</mask>
<g mask="url(#mask4_341_2892)">
<g opacity="0.5">
<path d="M223.601 170.055C223.601 170.055 221.759 150.626 212.196 150.017C202.634 149.408 202.938 163.279 205.789 172.842C208.64 182.404 215.4 185.48 220.894 180.546" fill="white"/>
<path d="M223.601 170.055C223.601 170.055 221.759 150.626 212.196 150.017C202.634 149.408 202.938 163.279 205.789 172.842C208.64 182.404 215.4 185.48 220.894 180.546" stroke="#263238" stroke-width="0.75" stroke-linecap="round" stroke-linejoin="round"/>
</g>
</g>
<path d="M223.601 170.055C223.601 170.055 221.759 150.626 212.196 150.017C202.634 149.408 202.938 163.279 205.789 172.842C208.64 182.404 215.4 185.48 220.894 180.546" stroke="#263238" stroke-width="0.75" stroke-linecap="round" stroke-linejoin="round"/>
<path d="M188.683 183.013L219.532 229.896L205.341 248.092C198.95 235.762 191.847 223.815 184.07 212.309C173.578 197.509 172.345 195.042 172.345 195.042L188.683 183.013Z" fill="white"/>
<mask id="mask5_341_2892" style="mask-type:luminance" maskUnits="userSpaceOnUse" x="172" y="183" width="48" height="66">
<path d="M188.683 183.013L219.532 229.896L205.341 248.092C198.95 235.762 191.847 223.815 184.07 212.309C173.578 197.509 172.345 195.042 172.345 195.042L188.683 183.013Z" fill="white"/>
</mask>
<g mask="url(#mask5_341_2892)">
<path d="M188.683 183.013L172.345 195.042C172.345 195.042 173.258 196.852 179.985 206.511L197.252 196.035L188.683 183.013Z" fill="#FF206E"/>
<path opacity="0.5" d="M188.683 183.013L172.345 195.042C172.345 195.042 173.258 196.852 179.985 206.511L197.252 196.035L188.683 183.013Z" fill="white"/>
</g>
<path d="M188.683 183.013L219.532 229.896L205.341 248.092C198.95 235.762 191.847 223.815 184.07 212.309C173.578 197.509 172.345 195.042 172.345 195.042L188.683 183.013Z" stroke="#263238" stroke-width="0.75" stroke-linecap="round" stroke-linejoin="round"/>
<path d="M268.017 299.605C268.017 299.605 272.951 289.418 273.88 282.947C274.809 276.476 275.113 272.76 278.813 269.684C282.513 266.609 294.542 254.26 296.432 249.631C298.322 245.002 299.507 249.326 300.436 253.026C301.365 256.726 301.045 260.122 297.97 262.284C295.803 263.893 293.835 265.753 292.107 267.826L294.878 269.989C294.878 269.989 333.432 255.493 337.453 253.971C341.473 252.45 345.157 253.651 345.462 256.742C345.766 259.834 344.548 260.138 342.69 261.067C340.832 261.996 320.49 269.076 317.703 270.309L314.932 271.542L317.095 273.705C317.095 273.705 328.195 273.401 333.753 273.096C339.311 272.792 347.624 271.863 348.857 273.705C349.407 274.529 349.618 275.534 349.445 276.51C349.272 277.486 348.728 278.358 347.928 278.943C347.28 279.564 346.499 280.031 345.645 280.308C344.791 280.586 343.885 280.666 342.995 280.544C340.224 280.544 316.47 282.386 316.47 282.386L317.095 285.782C317.095 285.782 342.386 289.786 343.299 291.02C344.212 292.253 344.228 292.878 343.299 294.72C342.37 296.562 341.697 296.578 339.295 296.578C336.892 296.578 316.87 293.486 316.87 293.486C316.87 293.486 326.737 299.044 327.97 299.973C329.204 300.902 333.512 301.575 332.279 303.673C331.046 305.772 330.437 306.444 328.579 306.14C326.721 305.836 313.475 299.973 313.475 299.973C313.475 299.973 300.212 301.815 295.855 302.136C292.649 302.284 289.435 302.177 286.245 301.815L273.912 309.824L268.017 299.605Z" fill="white" stroke="#263238" stroke-width="0.75" stroke-linecap="round" stroke-linejoin="round"/>
<path d="M180.434 285.717C180.434 285.717 171.48 248.396 167.78 240.067C164.08 231.738 143.113 224.05 132.926 242.23C122.739 260.41 131.997 281.088 135.713 295.888C139.429 310.688 162.846 377.577 166.242 385.954C169.638 394.331 175.853 392.361 179.2 391.512C182.548 390.663 276.346 315.013 276.346 315.013L268.946 298.371L196.163 335.74L180.434 285.717Z" fill="white"/>
<mask id="mask6_341_2892" style="mask-type:luminance" maskUnits="userSpaceOnUse" x="128" y="231" width="149" height="162">
<path d="M180.434 285.717C180.434 285.717 171.48 248.396 167.78 240.067C164.08 231.738 143.113 224.05 132.926 242.23C122.739 260.41 131.997 281.088 135.713 295.888C139.429 310.688 162.846 377.577 166.242 385.954C169.638 394.331 175.853 392.361 179.2 391.512C182.548 390.663 276.346 315.013 276.346 315.013L268.946 298.371L196.163 335.74L180.434 285.717Z" fill="white"/>
</mask>
<g mask="url(#mask6_341_2892)">
<path d="M177.807 367.774C180.183 360.554 182.925 353.46 186.024 346.519C189.451 339.663 169.574 362.296 165.457 349.947C161.341 337.597 135.296 275.898 140.086 255.331C142.163 245.776 147.754 237.35 155.751 231.722C148.11 229.912 138.756 231.834 132.926 242.245C122.755 260.441 131.997 281.104 135.713 295.904C139.429 310.704 162.846 377.593 166.242 385.97C169.638 394.347 175.852 392.377 179.2 391.528C181.667 390.855 232.058 350.603 259.287 328.772L177.807 367.774Z" fill="#FF206E"/>
<path opacity="0.5" d="M177.807 367.774C180.183 360.554 182.925 353.46 186.024 346.519C189.451 339.663 169.574 362.296 165.457 349.947C161.341 337.597 135.296 275.898 140.086 255.331C142.163 245.776 147.754 237.35 155.751 231.722C148.11 229.912 138.756 231.834 132.926 242.245C122.755 260.441 131.997 281.104 135.713 295.904C139.429 310.704 162.846 377.593 166.242 385.97C169.638 394.347 175.852 392.377 179.2 391.528C181.667 390.855 232.058 350.603 259.287 328.772L177.807 367.774Z" fill="white"/>
</g>
<path d="M180.434 285.717C180.434 285.717 171.48 248.396 167.78 240.067C164.08 231.738 143.113 224.05 132.926 242.23C122.739 260.41 131.997 281.088 135.713 295.888C139.429 310.688 162.846 377.577 166.242 385.954C169.638 394.331 175.853 392.361 179.2 391.512C182.548 390.663 276.346 315.013 276.346 315.013L268.946 298.371L196.163 335.74L180.434 285.717Z" stroke="#263238" stroke-width="0.75" stroke-linecap="round" stroke-linejoin="round"/>
<path d="M258.15 304.538L266.479 321.5" stroke="#263238" stroke-width="0.75" stroke-linecap="round" stroke-linejoin="round"/>
<path d="M62.4972 219.437L19.8907 248.989C19.8907 248.989 40.8896 271.189 38.7273 329.429C37.1255 373.909 43.0039 424.412 51.5412 434.68H96.9026C96.9026 434.68 81.2216 348.185 82.3428 298.627C83.2237 260.97 71.9154 234.83 62.4972 219.437Z" fill="white" stroke="#263238" stroke-width="0.75" stroke-linecap="round" stroke-linejoin="round"/>
<path d="M67.6227 219.437L25.0162 248.989C25.0162 248.989 46.0151 271.189 43.8367 329.429C42.235 373.909 48.1134 424.412 56.6507 434.68H102.028C102.028 434.68 86.3631 348.185 87.4843 298.627C88.3332 260.97 77.0249 234.83 67.6227 219.437Z" fill="#263238" stroke="#263238" stroke-width="0.75" stroke-linecap="round" stroke-linejoin="round"/>
<path d="M62.4972 219.437H67.6228L25.0163 248.989H19.9068L62.4972 219.437Z" fill="white" stroke="#263238" stroke-width="0.75" stroke-linecap="round" stroke-linejoin="round"/>
</g>
<path d="M341.217 46.993C341.233 47.6456 341.054 48.2882 340.703 48.8386C340.352 49.389 339.845 49.8223 339.246 50.0832C338.648 50.344 337.985 50.4206 337.343 50.3031C336.701 50.1856 336.109 49.8793 335.641 49.4235C335.174 48.9676 334.853 48.3828 334.72 47.7438C334.587 47.1047 334.647 46.4405 334.893 45.8358C335.139 45.2311 335.559 44.7135 336.101 44.349C336.643 43.9845 337.28 43.7897 337.933 43.7896C338.79 43.7893 339.614 44.1242 340.227 44.7228C340.841 45.3214 341.196 46.1361 341.217 46.993Z" fill="#263238"/>
<path d="M326.929 63.6673L337.933 46.9932L356.529 62.3859" stroke="#263238" stroke-linecap="round" stroke-linejoin="round"/>
<path d="M316.617 16.3382C318.307 12.368 321.108 8.95761 324.691 6.50859C328.902 3.54158 333.819 1.70474 338.961 1.17726C344.953 0.539701 351.009 1.41592 356.565 3.72392C361.812 5.64407 366.552 8.71599 370.426 12.7087C373.783 16.1638 376.115 20.4662 377.164 25.1445C378.132 29.517 377.755 34.0759 376.081 38.2348C374.946 41.2854 373.05 44.0033 370.57 46.1366C368.35 48.0243 365.85 49.5653 363.158 50.7063C360.576 51.7932 356.007 53.5306 349.454 55.9186C347.921 56.4747 346.423 57.1184 344.966 57.8465C343.963 58.3329 343.025 58.9405 342.174 59.6553C341.497 60.228 340.884 60.8703 340.345 61.5713C339.828 62.2496 338.973 63.4515 337.782 65.1414C335.376 68.9019 332.227 70.0126 328.337 68.4735C327.376 68.1253 326.495 67.5928 325.743 66.9066C324.992 66.2204 324.385 65.394 323.957 64.475C323.528 63.3993 323.33 62.2471 323.375 61.0915C323.421 59.936 323.709 58.8025 324.222 57.7632C326.217 52.2182 330.353 47.6818 335.725 45.1489C338.799 43.7325 341.944 42.4695 345.146 41.3646C348.527 40.1745 351.006 39.2344 352.57 38.568C354.122 37.9021 355.572 37.0249 356.878 35.9618C358.185 34.9062 359.193 33.5324 359.801 31.9752C360.418 30.4987 360.703 28.9077 360.639 27.3116C360.575 25.7154 360.162 24.152 359.428 22.7287C357.818 19.596 355.046 17.1999 351.692 16.0407C347.36 14.3509 343.75 14.1883 340.863 15.5528C337.356 17.3985 334.288 19.9626 331.862 23.0738C328.766 26.9533 325.349 28.1434 321.611 26.6439C320.563 26.2561 319.607 25.657 318.806 24.8847C318.004 24.1124 317.374 23.1837 316.954 22.1575C316.511 21.2581 316.252 20.2804 316.195 19.2813C316.137 18.2823 316.28 17.2819 316.617 16.3382ZM319.902 91.5481C317.577 90.6765 315.664 88.9795 314.536 86.788C313.958 85.6357 313.645 84.3712 313.62 83.0852C313.595 81.7992 313.859 80.5237 314.391 79.3503C314.825 78.1863 315.5 77.1247 316.372 76.2333C317.244 75.3419 318.295 74.6404 319.457 74.1737C320.623 73.6817 321.877 73.4281 323.145 73.4281C324.412 73.4281 325.667 73.6817 326.833 74.1737C328 74.6082 329.066 75.2701 329.97 76.12C330.873 76.9699 331.595 77.9906 332.092 79.1215C332.589 80.2524 332.852 81.4706 332.864 82.7037C332.876 83.9368 332.638 85.1598 332.163 86.3001C331.747 87.5219 331.064 88.6377 330.161 89.5676C329.258 90.4974 328.158 91.2185 326.941 91.679C324.662 92.516 322.148 92.4693 319.902 91.5481Z" fill="#FF206E"/>
</svg>
