<svg width="222" height="222" viewBox="0 0 222 222" fill="none" xmlns="http://www.w3.org/2000/svg">
<g clip-path="url(#clip0_382_845)">
<path d="M222 111C222 49.6964 172.304 0 111 0C49.6964 0 0 49.6964 0 111C0 172.304 49.6964 222 111 222C172.304 222 222 172.304 222 111Z" fill="#414141"/>
<path d="M30.8292 108.099L66.616 120.889V135.96L18 115.606V104.929L30.8292 108.099ZM66.616 97.6444L30.773 110.657L18 113.66V102.983L66.616 82.6295V97.6444ZM104.722 150L74.8089 73H89.3957L119.358 150H104.722ZM191.059 110.324L154.99 97.5886V82.6295L204 102.983V113.716L191.059 110.324ZM154.99 121.001L191.115 107.988L204 104.929V115.606L154.99 135.96V121.001Z" fill="#FF206E"/>
</g>
<defs>
<clipPath id="clip0_382_845">
<rect width="222" height="222" fill="white"/>
</clipPath>
</defs>
</svg>
